HIERARCHY
ROOT Hips
{
	OFFSET 0.00000 0.00000 0.00000
	CHANNELS 6 Xposition Yposition Zposition Zrotation Yrotation Xrotation 
	JOINT LHipJoint
	{
		OFFSET 0 0 0
		CHANNELS 3 Zrotation Yrotation Xrotation
		JOINT LeftUpLeg
		{
			OFFSET 1.86795 -1.59681 0.65681
			CHANNELS 3 Zrotation Yrotation Xrotation
			JOINT LeftLeg
			{
				OFFSET 2.30491 -6.33268 0.00000
				CHANNELS 3 Zrotation Yrotation Xrotation
				JOINT LeftFoot
				{
					OFFSET 2.46780 -6.78022 0.00000
					CHANNELS 3 Zrotation Yrotation Xrotation
					JOINT LeftToeBase
					{
						OFFSET 0.07897 -0.21698 1.59652
						CHANNELS 3 Zrotation Yrotation Xrotation
						End Site
						{
							OFFSET 0.00000 -0.00000 0.82310
						}
					}
				}
			}
		}
	}
	JOINT RHipJoint
	{
		OFFSET 0 0 0
		CHANNELS 3 Zrotation Yrotation Xrotation
		JOINT RightUpLeg
		{
			OFFSET -1.93650 -1.59681 0.65681
			CHANNELS 3 Zrotation Yrotation Xrotation
			JOINT RightLeg
			{
				OFFSET -2.29410 -6.30299 0.00000
				CHANNELS 3 Zrotation Yrotation Xrotation
				JOINT RightFoot
				{
					OFFSET -2.48738 -6.83403 0.00000
					CHANNELS 3 Zrotation Yrotation Xrotation
					JOINT RightToeBase
					{
						OFFSET -0.08699 -0.23899 1.89395
						CHANNELS 3 Zrotation Yrotation Xrotation
						End Site
						{
							OFFSET -0.00000 -0.00000 0.96904
						}
					}
				}
			}
		}
	}
	JOINT LowerBack
	{
		OFFSET 0 0 0
		CHANNELS 3 Zrotation Yrotation Xrotation
		JOINT Spine
		{
			OFFSET 0.03629 1.99740 -0.07548
			CHANNELS 3 Zrotation Yrotation Xrotation
			JOINT Spine1
			{
				OFFSET 0.03970 1.94298 0.17218
				CHANNELS 3 Zrotation Yrotation Xrotation
				JOINT Neck
				{
					OFFSET 0 0 0
					CHANNELS 3 Zrotation Yrotation Xrotation
					JOINT Neck1
					{
						OFFSET -0.05054 1.79469 0.04241
						CHANNELS 3 Zrotation Yrotation Xrotation
						JOINT Head
						{
							OFFSET 0.05195 1.78475 -0.22133
							CHANNELS 3 Zrotation Yrotation Xrotation
							End Site
							{
								OFFSET 0.02420 1.80711 -0.07950
							}
						}
					}
				}
				JOINT LeftShoulder
				{
					OFFSET 0 0 0
					CHANNELS 3 Zrotation Yrotation Xrotation
					JOINT LeftArm
					{
						OFFSET 2.92134 1.19850 0.36056
						CHANNELS 3 Zrotation Yrotation Xrotation
						JOINT LeftForeArm
						{
							OFFSET 4.84137 -0.00000 0.00000
							CHANNELS 3 Zrotation Yrotation Xrotation
							JOINT LeftHand
							{
								OFFSET 3.24520 -0.00000 -0.00000
								CHANNELS 3 Zrotation Yrotation Xrotation
								JOINT LeftFingerBase
								{
									OFFSET 0 0 0
									CHANNELS 3 Zrotation Yrotation Xrotation
									JOINT LeftHandIndex1
									{
										OFFSET 0.52122 -0.00000 0.00000
										CHANNELS 3 Zrotation Yrotation Xrotation
										End Site
										{
											OFFSET 0.42022 -0.00000 0.00000
										}
									}
								}
								JOINT LThumb
								{
									OFFSET 0 0 0
									CHANNELS 3 Zrotation Yrotation Xrotation
									End Site
									{
										OFFSET 0.42664 -0.00000 0.42664
									}
								}
							}
						}
					}
				}
				JOINT RightShoulder
				{
					OFFSET 0 0 0
					CHANNELS 3 Zrotation Yrotation Xrotation
					JOINT RightArm
					{
						OFFSET -2.84327 1.20795 0.50191
						CHANNELS 3 Zrotation Yrotation Xrotation
						JOINT RightForeArm
						{
							OFFSET -4.72284 -0.00000 0.00000
							CHANNELS 3 Zrotation Yrotation Xrotation
							JOINT RightHand
							{
								OFFSET -3.23459 -0.00000 0.00000
								CHANNELS 3 Zrotation Yrotation Xrotation
								JOINT RightFingerBase
								{
									OFFSET 0 0 0
									CHANNELS 3 Zrotation Yrotation Xrotation
									JOINT RightHandIndex1
									{
										OFFSET -0.30742 -0.00000 0.00000
										CHANNELS 3 Zrotation Yrotation Xrotation
										End Site
										{
											OFFSET -0.24785 -0.00000 0.00000
										}
									}
								}
								JOINT RThumb
								{
									OFFSET 0 0 0
									CHANNELS 3 Zrotation Yrotation Xrotation
									End Site
									{
										OFFSET -0.25163 -0.00000 0.25163
									}
								}
							}
						}
					}
				}
			}
		}
	}
}
MOTION
Frames: 7
Frame Time: .0083333
12.3339 14.9923 -13.5835 -12.9484 -26.9722 47.4532 0.0000 0.0000 0.0000 8.1148 -1.5025 -71.5191 10.3096 17.5803 60.5181 1.7049 10.2419 -30.1924 0.7434 -5.5077 -15.3624 0.0000 0.0000 0.0000 18.0882 31.3099 -71.7241 -5.9536 -14.3832 44.7950 -0.5383 1.2733 -13.4791 -0.1155 2.1907 -6.0330 6.6506 -1.9887 22.1911 6.2476 0.2718 -4.7374 3.1536 -0.1848 -17.6629 -5.9298 2.2419 1.7615 8.3100 2.9795 -1.1509 3.7134 1.4359 -0.9189 0.0000 0.0000 0.0000 -87.6774 18.5337 38.1126 35.1569 -44.9239 -14.9241 -0.0000 -0.0000 31.3950 34.7637 37.1660 22.7488 -7.1250 0.0000 -0.0000 1.0554 72.6788 0.6933 0.0000 0.0000 0.0000 76.4193 -30.8827 50.3517 -82.4503 59.7835 -53.4665 0.0000 -0.0000 -6.1679 -41.3517 41.4290 -30.2152 7.1250 -0.0000 -0.0000 -2.2676 19.6033 -2.8987
12.3386 14.9754 -13.5910 -12.9409 -26.9055 47.8891 0.0000 0.0000 0.0000 8.2282 -1.5364 -72.1024 10.3277 17.5900 60.5780 1.6998 10.2311 -30.1516 0.7548 -5.5487 -15.4804 0.0000 0.0000 0.0000 17.7779 31.4486 -72.3584 -5.9527 -14.3824 44.7917 -0.5242 1.1022 -13.3402 -0.1454 2.4574 -6.7714 6.7908 -2.0204 21.8673 6.0825 0.1961 -4.5238 3.2708 -0.1687 -17.8556 -6.1869 2.3411 2.2958 8.5010 3.0946 -1.3213 3.8245 1.4801 -1.0891 0.0000 0.0000 0.0000 -87.7844 18.4991 37.7690 35.3135 -45.0347 -15.0347 -0.0000 -0.0000 31.4347 34.8517 37.2024 22.8330 -7.1250 0.0000 -0.0000 1.1757 72.7464 0.7741 0.0000 0.0000 0.0000 76.4445 -30.7865 50.3616 -82.4483 59.7834 -53.4648 0.0000 -0.0000 -5.7909 -41.1438 40.8377 -29.7407 7.1250 -0.0000 -0.0000 -2.3734 18.9202 -3.0168
12.3406 14.9664 -13.5973 -13.0853 -26.6891 48.1880 0.0000 0.0000 0.0000 8.5217 -1.4987 -72.4808 10.3533 17.6038 60.6627 1.7181 10.0585 -30.1459 0.7165 -5.4091 -15.0793 0.0000 0.0000 0.0000 17.8254 31.5537 -72.6421 -5.9437 -14.3735 44.7552 -0.5181 1.0685 -13.2698 -0.1399 2.4106 -6.6419 6.9982 -2.0624 21.7649 6.1485 0.1933 -4.4972 3.2263 -0.1875 -17.7619 -6.2974 2.3671 2.5553 8.5950 3.1220 -1.4298 3.8771 1.4870 -1.1782 -0.0000 -0.0000 0.0000 -87.8392 18.3867 37.5788 35.4671 -45.1428 -15.1435 -0.0000 -0.0000 31.3512 35.3688 37.5009 23.3709 -7.1250 0.0000 -0.0000 1.8267 73.2325 1.2222 -0.0000 -0.0000 0.0000 76.4966 -30.6039 50.3907 -82.5860 59.7913 -53.5838 0.0000 -0.0000 -5.7234 -40.8456 40.4490 -29.2883 7.1250 -0.0000 -0.0000 -2.3623 18.4021 -2.9893
12.3396 14.9758 -13.5908 -13.2794 -26.6798 48.1110 0.0000 0.0000 0.0000 8.6766 -1.4190 -72.2212 10.3484 17.6012 60.6467 1.7474 9.9293 -30.2421 0.6888 -5.3057 -14.7827 0.0000 0.0000 0.0000 18.1744 31.5592 -72.2736 -5.9200 -14.3504 44.6597 -0.5255 1.2806 -13.3111 -0.1089 2.1279 -5.8594 7.1672 -2.0169 21.9923 6.1082 0.3095 -4.3393 3.0374 -0.1566 -17.7036 -6.2374 2.3143 2.7952 8.6176 3.0538 -1.6262 3.8737 1.4456 -1.2789 0.0000 0.0000 0.0000 -87.7429 18.2214 37.6932 35.5649 -45.2113 -15.2129 -0.0000 -0.0000 31.2364 36.0291 37.8335 24.0424 -7.1250 0.0000 -0.0000 2.7344 73.8046 1.8636 0.0000 0.0000 0.0000 76.7715 -30.5169 50.1296 -82.5654 59.7901 -53.5660 0.0000 -0.0000 -5.4653 -41.3368 40.6654 -29.8223 7.1250 -0.0000 -0.0000 -2.5253 18.8268 -3.2076
12.3424 14.9772 -13.5954 -13.1722 -26.6302 48.2552 0.0000 0.0000 0.0000 8.6902 -1.5402 -72.4393 10.3247 17.5884 60.5682 1.7324 9.9390 -30.1528 0.6603 -5.1971 -14.4717 0.0000 0.0000 0.0000 18.0241 31.5072 -72.5123 -5.8923 -14.3232 44.5481 -0.5212 1.3321 -13.2418 -0.0973 2.0118 -5.5383 7.2220 -1.9376 21.9116 6.0291 0.4142 -4.3807 2.8721 -0.1231 -17.7038 -5.9506 2.1588 3.3035 8.3896 2.8489 -1.9971 3.7406 1.3313 -1.4630 -0.0000 0.0000 0.0000 -87.5329 18.1855 38.1424 35.5894 -45.2284 -15.2303 -0.0000 -0.0000 31.0763 36.5662 38.0186 24.5536 -7.1250 0.0000 -0.0000 3.5758 74.1822 2.4665 -0.0000 0.0000 0.0000 77.0477 -30.6079 49.7758 -82.5842 59.7912 -53.5822 0.0000 -0.0000 -5.2883 -41.7707 40.7334 -30.2353 7.1250 -0.0000 -0.0000 -2.7102 19.0790 -3.4502
12.3421 14.9846 -13.5892 -13.1845 -26.7539 48.1360 0.0000 0.0000 0.0000 8.5609 -1.4797 -72.1773 10.2949 17.5724 60.4697 1.7338 9.9340 -30.1585 0.6266 -5.0655 -14.0954 0.0000 0.0000 0.0000 18.0774 31.5103 -72.2378 -5.8578 -14.2892 44.4085 -0.5170 1.3505 -13.1831 -0.1087 2.1263 -5.8547 7.1507 -1.9019 22.1562 6.0182 0.4634 -4.3051 2.8864 -0.0941 -17.7586 -5.9019 2.1304 3.7049 8.1686 2.8097 -2.3643 3.6546 1.3047 -1.6462 0.0000 -0.0000 0.0000 -87.6185 18.1734 38.2170 35.5981 -45.2346 -15.2365 -0.0000 -0.0000 31.0261 36.8815 38.3267 24.9528 -7.1250 0.0000 -0.0000 3.9210 74.6123 2.7410 0.0000 -0.0000 0.0000 76.8607 -30.5903 49.9260 -82.8622 59.8066 -53.8225 0.0000 -0.0000 -5.4410 -41.8137 40.3929 -30.1000 7.1250 -0.0000 -0.0000 -2.8485 18.7520 -3.6165
12.3389 15.0009 -13.5830 -13.2139 -26.8343 47.7820 0.0000 0.0000 0.0000 8.4061 -1.3910 -71.6311 10.2568 17.5517 60.3432 1.7501 9.8501 -30.2036 0.6159 -5.0226 -13.9730 0.0000 0.0000 0.0000 18.3611 31.4158 -71.6359 -5.8278 -14.2593 44.2865 -0.5177 1.4702 -13.1633 -0.1164 2.2000 -6.0587 6.9277 -1.9739 22.6656 6.3134 0.4103 -4.4464 3.0222 -0.1476 -17.5681 -6.3818 2.3019 3.9402 8.2853 3.0257 -2.6584 3.7842 1.4093 -1.8178 -0.0000 0.0000 0.0000 -88.0090 18.2350 37.7908 35.6950 -45.3020 -15.3053 -0.0000 -0.0000 31.2473 37.0646 38.7055 25.2821 -7.1250 0.0000 -0.0000 3.9560 75.0701 2.8042 -0.0000 0.0000 0.0000 76.2908 -30.4944 50.5007 -83.1678 59.8229 -54.0866 0.0000 -0.0000 -5.6639 -42.1815 40.3359 -30.3927 7.1250 -0.0000 -0.0000 -3.0453 18.8515 -3.8703
